<?xml version="1.0" encoding="UTF-8"?>
<svg id="Layer_2" xmlns="http://www.w3.org/2000/svg" viewBox="0 0 1010 1010">
  <defs>
    <style>
      .cls-1 {
        fill: #fff;
      }
    </style>
  </defs>
  <g id="Layer_1-2" data-name="Layer_1">
    <g>
      <g>
        <path class="cls-1" d="M505,1007.5c-67.83,0-133.64-13.29-195.6-39.49-59.84-25.31-113.58-61.54-159.72-107.69s-82.38-99.88-107.69-159.72C15.79,638.64,2.5,572.84,2.5,505s13.29-133.64,39.49-195.6c25.31-59.84,61.54-113.58,107.69-159.72s99.88-82.38,159.72-107.69C371.36,15.79,437.17,2.5,505,2.5s133.64,13.29,195.6,39.49c59.84,25.31,113.58,61.54,159.72,107.69,46.15,46.15,82.38,99.88,107.69,159.72,26.21,61.96,39.49,127.76,39.49,195.6s-13.29,133.64-39.49,195.6c-25.31,59.84-61.54,113.58-107.69,159.72s-99.88,82.38-159.72,107.69c-61.96,26.21-127.76,39.49-195.6,39.49ZM505,22.28C238.83,22.28,22.28,238.83,22.28,505s216.55,482.72,482.72,482.72,482.72-216.55,482.72-482.72S771.17,22.28,505,22.28Z"/>
        <path class="cls-1" d="M505,5c67.5,0,132.98,13.22,194.62,39.3,59.54,25.18,113.01,61.23,158.93,107.15s81.97,99.39,107.15,158.93c26.07,61.65,39.3,127.13,39.3,194.62s-13.22,132.98-39.3,194.62c-25.18,59.54-61.23,113.01-107.15,158.93s-99.39,81.97-158.93,107.15c-61.65,26.07-127.13,39.3-194.62,39.3s-132.98-13.22-194.62-39.3c-59.54-25.18-113.01-61.23-158.93-107.15s-81.97-99.39-107.15-158.93c-26.07-61.65-39.3-127.13-39.3-194.62s13.22-132.98,39.3-194.62c25.18-59.54,61.23-113.01,107.15-158.93s99.39-81.97,158.93-107.15c61.65-26.07,127.13-39.3,194.62-39.3M505,990.22c267.55,0,485.22-217.67,485.22-485.22S772.55,19.78,505,19.78,19.78,237.45,19.78,505s217.67,485.22,485.22,485.22M505,0c-68.17,0-134.31,13.35-196.57,39.69-60.14,25.44-114.14,61.85-160.52,108.22-46.37,46.37-82.79,100.38-108.22,160.52C13.35,370.69,0,436.83,0,505s13.35,134.31,39.69,196.57c25.44,60.14,61.85,114.14,108.22,160.52s100.38,82.79,160.52,108.22c62.27,26.34,128.4,39.69,196.57,39.69s134.31-13.35,196.57-39.69c60.14-25.44,114.14-61.85,160.52-108.22,46.37-46.37,82.78-100.38,108.22-160.52,26.34-62.27,39.69-128.4,39.69-196.57s-13.35-134.31-39.69-196.57c-25.44-60.14-61.85-114.14-108.22-160.52-46.37-46.37-100.38-82.79-160.52-108.22C639.31,13.35,573.17,0,505,0h0ZM505,985.22c-264.8,0-480.22-215.43-480.22-480.22S240.21,24.78,505,24.78s480.22,215.43,480.22,480.22-215.43,480.22-480.22,480.22h0Z"/>
      </g>
      <g>
        <path class="cls-1" d="M512.94,804.23c-6.08,0-12.25-.09-18.32-.28-34.73-1.07-69.91-3.46-99.74-5.65-16.56-1.22-32.95-6.47-48.7-15.62-16.99-9.87-26.06-23.9-27.73-42.89-1.28-14.53-3.24-29.32-5.14-43.62-1.51-11.39-3.08-23.15-4.3-34.79-2.67-25.39-4.86-51.22-6.98-76.2-.44-5.21-.88-10.42-1.33-15.63-.62-7.19-.97-14.41-1.31-21.39-.14-2.88-.28-5.76-.44-8.64-.77-13.93,4.32-25.7,15.12-34.98,12.05-10.36,26.17-15.33,38.4-18.84,19.34-5.54,40.76-8.88,65.48-10.21,14.2-.76,28.56-1,42.45-1.24,4.27-.07,8.54-.14,12.81-.23,2.78-.06,5.74-.08,9.31-.08,2.44,0,4.9.01,7.42.02h.74s0-30.63,0-30.63c-1.06-.24-2.02-.44-3-.63-17.32-3.35-32.07-14.48-40.48-30.52-8.47-16.17-9.19-34.86-1.96-51.28,4.05-9.21,8.81-18.13,13.41-26.77l.09-.17c1.61-3.01,3.21-6.02,4.78-9.04,11.1-21.29,19.44-39.48,24.1-59.01,4.18-17.53,4.08-31.76-.31-44.8-2.08-6.18.33-11.96,6-14.39,1.5-.65,3.05-.97,4.59-.97,4.11,0,7.75,2.31,9.97,6.33,14.52,26.24,20.32,49.63,18.24,73.63-.98,11.38-1.37,22.83-1.14,34.02.31,15.17,6.31,29.37,12.43,42.62,1.72,3.72,4.02,7.31,6.46,11.11.75,1.17,1.5,2.34,2.23,3.51,5.11,8.18,7.87,16.49,8.46,25.39,1.2,18.32-6.94,31.07-24.88,38.97-5.08,2.24-10.4,3.12-15.55,3.98-.18.03-.37.06-.55.09v30.17l.59.04c5.18.35,10.53.71,15.81,1.16,39.36,3.4,81.37,7.97,121.95,18.37,9.58,2.46,19.47,6.12,30.23,11.2,18.89,8.92,29.75,24.74,31.41,45.77.75,9.44.11,18.88-.51,28-.14,2.04-.27,4.01-.39,5.98-.42,7.03-.9,14.14-1.36,21.01-1.68,25.08-3.42,51.01-2.73,76.41.37,13.55,1.52,27.41,2.64,40.81l.04.44c.36,4.28.71,8.57,1.05,12.85.88,11.39-2.85,20.94-11.08,28.38-8.3,7.5-18.16,11.48-25.82,14.12-22.24,7.65-46.55,13.39-74.32,17.55-28.98,4.35-58.63,6.55-88.1,6.55ZM325.41,598.12c1.47,17.36,2.99,35.32,4.89,52.89,1.34,12.34,2.97,24.89,4.54,37.04,2.09,16.09,4.24,32.68,5.77,49.11,1.17,12.56,6.6,20.62,18.16,26.95,14.25,7.81,31.02,12.13,52.8,13.61,18.85,1.28,37.51,2.33,55.47,3.14,13.33.6,26.43.9,38.92.9,16.26,0,31.72-.49,47.26-1.5,41.33-2.68,77.77-9.28,111.42-20.16,8.41-2.72,16.46-5.66,22.39-11.69,2.22-2.26,3.12-4.58,2.9-7.51-.4-5.41-.91-10.9-1.4-16.22-1.16-12.57-2.36-25.55-2.32-38.49.08-20.76,1.07-41.79,2.03-62.12.35-7.44.7-14.84,1.01-22.23.16-3.89.38-7.69.64-11.66-9.04,5.26-17.87,8.69-25.49,11.38-33.91,11.97-71.28,19.18-121.18,23.35-18.6,1.56-37.39,2.31-57.44,2.31-8.78,0-17.92-.15-27.18-.45-22.17-.72-48.28-2.2-73.85-7.79-20.7-4.52-42.12-10.82-59.76-25.76.13,1.58.41,4.9.41,4.9ZM461.35,496.17c-15.35,0-29.44.48-43.07,1.48-18.96,1.39-41.24,3.7-62.74,10.36-9.74,3.02-19.85,6.83-27.8,14.23-4.12,3.83-6.12,7.43-6.31,11.32-.92,19.53,5.98,34.32,21.09,45.23,9.7,7,21.6,12.17,37.44,16.25,28.65,7.39,58.48,9.04,83.87,9.69,7.13.18,14.25.27,21.17.27,40.46,0,77.35-3.06,112.76-9.36,21.36-3.8,46.44-9.09,70.47-19.6,8.94-3.91,16.05-7.67,21.63-13.32,1.98-2,2.18-3.33,2.1-4.46-1-14.14-5.99-23.59-15.7-29.73-7.49-4.74-16.31-8.38-26.98-11.13-43.98-11.36-88.88-15.93-130.86-19.19-1.8-.14-3.62-.25-5.46-.36l-.46,19.32c-.3,12.7-.61,25.41-.89,38.11-.08,3.59-1.25,6.47-3.46,8.56-1.39,1.31-3.84,2.88-7.63,2.88-.16,0-.33,0-.5,0-5.51-.2-10.96-4.03-10.74-12.15.13-4.74.27-9.49.41-14.23v-.4c.29-9.69.59-19.71.8-29.55.1-4.51.08-8.97.05-13.67-10.15-.36-19.96-.55-29.2-.55ZM503.4,291.41c-5.54,15.61-12.9,30.28-20.58,45.05-1.55,2.98-3.13,5.95-4.71,8.92-4.47,8.39-9.1,17.06-12.79,25.78-4.01,9.49-3.44,20.48,1.56,30.16,5.07,9.82,13.96,16.97,23.78,19.13,6.08,1.34,12.36,2.72,18.35,2.72,3.63,0,6.84-.5,9.8-1.53,10.35-3.59,14.44-9.5,13.26-19.14-.81-6.63-4.42-12.46-8.24-18.62l-.11-.18c-12.58-20.31-19.33-39.67-20.63-59.19-.74-11.12-.22-22.29.31-33.1Z"/>
        <path class="cls-1" d="M497.89,208.27c3.12,0,5.98,1.78,7.78,5.04,14.27,25.78,19.97,48.72,17.94,72.2-.99,11.46-1.38,23-1.15,34.29.32,15.65,6.43,30.13,12.66,43.62,1.79,3.87,4.13,7.53,6.62,11.41.74,1.16,1.49,2.32,2.21,3.49,4.88,7.82,7.53,15.75,8.08,24.23,1.14,17.38-6.3,28.99-23.4,36.52-4.8,2.11-9.96,2.97-14.96,3.8-.87.14-1.75.29-2.63.44v34.62c.91.06,1.82.12,2.73.18,5.22.35,10.63.71,15.95,1.17,39.25,3.39,81.14,7.95,121.54,18.3,9.43,2.42,19.17,6.02,29.78,11.03,18.03,8.51,28.4,23.62,29.98,43.7.73,9.27.1,18.61-.51,27.65-.13,2-.27,3.99-.39,5.98-.42,7-.9,14.12-1.36,20.99-1.69,25.14-3.43,51.13-2.74,76.64.37,13.62,1.53,27.51,2.65,40.95.37,4.43.74,8.86,1.08,13.28.82,10.58-2.63,19.44-10.27,26.33-7.97,7.19-17.52,11.05-24.96,13.61-22.09,7.6-46.26,13.3-73.88,17.44-28.92,4.34-58.36,6.52-87.73,6.52-6.09,0-12.17-.09-18.25-.28-34.69-1.07-69.83-3.46-99.64-5.65-16.18-1.19-32.21-6.33-47.63-15.29-16.24-9.43-24.9-22.82-26.5-40.95-1.28-14.58-3.25-29.4-5.16-43.73-1.51-11.36-3.07-23.11-4.29-34.72-2.66-25.36-4.85-51.18-6.97-76.15-.44-5.21-.88-10.42-1.33-15.63-.61-7.11-.96-14.32-1.3-21.29-.14-2.88-.28-5.77-.44-8.65-.72-13.12,4.08-24.2,14.25-32.95,11.69-10.04,25.5-14.9,37.46-18.33,19.15-5.49,40.39-8.8,64.93-10.12,14.13-.76,28.48-1,42.36-1.23,4.27-.07,8.55-.14,12.82-.23,3.1-.06,6.16-.08,9.26-.08,2.53,0,5.09.01,7.71.03.98,0,1.96.01,2.95.01v-35.14c-1.71-.39-3.36-.77-5.02-1.09-16.57-3.21-30.69-13.86-38.74-29.22-8.12-15.49-8.8-33.4-1.89-49.12,4.02-9.13,8.76-18.03,13.34-26.63,1.63-3.06,3.27-6.12,4.87-9.2,11.18-21.46,19.6-39.8,24.31-59.59,4.29-18,4.17-32.68-.38-46.18-1.67-4.95.14-9.38,4.61-11.29,1.21-.52,2.43-.77,3.6-.77M509,425.68c3.6,0,7.16-.47,10.62-1.67,11.51-4,16.26-10.93,14.93-21.81-.88-7.18-4.63-13.23-8.6-19.64l-.12-.18c-12.36-19.95-18.98-38.93-20.26-58.03-.75-11.25-.19-22.62.35-33.62.18-3.73.38-7.6.51-11.37.08-2.32.08-4.61,0-6.88-5.38,22.47-15.3,42.55-25.85,62.84-1.55,2.97-3.12,5.93-4.7,8.89-4.5,8.44-9.16,17.17-12.89,25.99-4.3,10.17-3.7,21.94,1.64,32.28,5.41,10.47,14.93,18.1,25.46,20.43,6.25,1.38,12.63,2.78,18.89,2.78M484.99,607.52c40.54,0,77.76-3.09,113.2-9.39,21.5-3.82,46.76-9.16,71.04-19.77,9.21-4.02,16.54-7.92,22.41-13.86,2.11-2.13,2.97-4.11,2.81-6.4-1.06-15-6.42-25.06-16.86-31.66-7.71-4.88-16.77-8.62-27.69-11.44-44.16-11.41-89.2-16-131.29-19.26-2.65-.21-5.31-.36-8.09-.51l-.48,20.05c-.32,13.32-.64,26.64-.94,39.95-.07,2.9-.97,5.18-2.68,6.8-1.07,1.01-2.96,2.19-5.91,2.19-.13,0-.27,0-.41,0-3.96-.14-8.52-2.73-8.33-9.58.13-4.74.27-9.48.41-14.23.29-9.82.58-19.98.8-29.97.1-4.68.08-9.29.05-14.17,0-.66,0-1.31-.01-1.97-11.07-.43-21.6-.64-31.68-.64-15.36,0-29.67.5-43.25,1.49-19.1,1.4-41.56,3.73-63.3,10.47-10.02,3.1-20.44,7.04-28.77,14.79-4.63,4.31-6.89,8.45-7.1,13.03-.96,20.43,6.28,35.93,22.12,47.38,9.96,7.19,22.12,12.48,38.28,16.65,28.89,7.45,58.9,9.12,84.43,9.77,7.18.18,14.25.27,21.23.27M485.79,624.72c-8.82,0-17.84-.15-27.1-.45-22.05-.71-48.02-2.19-73.4-7.73-22.62-4.94-45.61-12.08-63.33-29.46.32,3.7.63,7.4.94,11.1,1.47,17.43,3,35.45,4.91,53.09,1.34,12.36,2.97,24.93,4.55,37.09,2.08,16.03,4.23,32.61,5.76,49.01,1.24,13.3,7.24,22.22,19.45,28.91,14.58,7.99,31.68,12.41,53.83,13.91,18.84,1.28,37.52,2.33,55.53,3.14,13.43.6,26.39.91,39.03.91,16.26,0,31.97-.5,47.42-1.5,41.54-2.7,78.18-9.33,112.03-20.28,8.72-2.82,17.07-5.88,23.41-12.32,2.74-2.78,3.88-5.78,3.61-9.45-.4-5.41-.91-10.93-1.41-16.26-1.16-12.5-2.35-25.42-2.3-38.25.08-20.72,1.07-41.74,2.03-62.06.35-7.4.7-14.8,1.01-22.2.23-5.43.58-10.8.96-16.41-10.02,6.45-20.17,10.5-29.14,13.67-33.7,11.9-70.88,19.06-120.56,23.22-18.41,1.54-37.31,2.31-57.23,2.31M497.89,203.27c-1.88,0-3.76.4-5.58,1.18-6.83,2.92-9.86,10.11-7.38,17.49,4.24,12.57,4.32,26.37.25,43.43-4.6,19.28-12.87,37.31-23.88,58.44-1.57,3.02-3.2,6.08-4.78,9.04l-.06.11c-4.64,8.71-9.42,17.67-13.51,26.97-7.53,17.12-6.79,36.6,2.04,53.45,8.76,16.72,24.15,28.31,42.22,31.81.32.06.65.13.97.19v26.1c-1.91,0-3.79-.02-5.66-.02-3.58,0-6.56.03-9.37.08-4.27.09-8.53.16-12.8.23-13.91.23-28.3.47-42.54,1.24-24.92,1.34-46.52,4.71-66.04,10.3-12.49,3.58-26.93,8.68-39.34,19.35-11.42,9.81-16.8,22.26-15.99,37.01.16,2.87.3,5.75.44,8.62.34,7,.69,14.24,1.31,21.48.45,5.2.89,10.4,1.33,15.59,2.12,25.02,4.32,50.86,6.99,76.28,1.23,11.68,2.79,23.45,4.3,34.83,1.9,14.3,3.86,29.06,5.14,43.54,1.75,19.86,11.22,34.53,28.97,44.83,16.08,9.34,32.83,14.71,49.77,15.95,29.86,2.2,65.07,4.58,99.85,5.66,6.1.19,12.29.28,18.4.28,29.6,0,59.36-2.21,88.47-6.58,27.92-4.18,52.38-9.96,74.77-17.66,7.89-2.71,18.04-6.82,26.68-14.62,8.84-7.98,12.85-18.22,11.9-30.43-.33-4.3-.7-8.65-1.05-12.87l-.04-.44c-1.12-13.37-2.27-27.19-2.64-40.67-.69-25.28,1.05-51.15,2.73-76.16.46-6.89.94-14.01,1.36-21.03.12-1.95.25-3.91.38-5.87v-.08c.63-9.23,1.27-18.75.51-28.38-1.73-21.97-13.09-38.51-32.83-47.83-10.9-5.15-20.93-8.86-30.67-11.36-40.76-10.44-82.89-15.03-122.35-18.43-4.71-.41-9.47-.74-14.11-1.05v-25.72c4.82-.81,9.76-1.76,14.61-3.9,19.02-8.38,27.64-21.93,26.37-41.42-.61-9.33-3.5-18.01-8.83-26.55-.74-1.18-1.49-2.36-2.24-3.53-2.39-3.73-4.65-7.25-6.29-10.81-6.01-13.01-11.91-26.93-12.2-41.62-.23-11.11.16-22.47,1.13-33.76,2.12-24.51-3.77-48.36-18.55-75.05-2.64-4.77-7.18-7.62-12.16-7.62h0ZM509,420.68c-5.71,0-11.86-1.36-17.81-2.67-9.1-2.01-17.36-8.68-22.1-17.84-4.66-9.02-5.2-19.24-1.48-28.04,3.65-8.62,8.24-17.24,12.69-25.58,1.55-2.91,3.15-5.91,4.73-8.94,5.42-10.42,10.68-20.79,15.26-31.49-.15,6.14-.12,12.34.29,18.55,1.33,19.93,8.2,39.67,21,60.33l.12.2c3.82,6.17,7.13,11.51,7.87,17.6,1.04,8.48-2.32,13.26-11.6,16.48-2.7.94-5.64,1.39-8.98,1.39h0ZM484.99,602.52c-6.89,0-13.99-.09-21.1-.27-25.26-.65-54.9-2.29-83.31-9.61-15.53-4-27.16-9.04-36.6-15.86-14.57-10.52-20.94-24.21-20.06-43.09.1-2.18.82-5.24,5.51-9.61,7.59-7.06,17.38-10.75,26.84-13.67,21.26-6.59,43.37-8.88,62.18-10.26,13.57-.99,27.6-1.47,42.89-1.47,8.48,0,17.44.16,26.71.46.02,3.82.02,7.5-.06,11.2-.22,9.84-.51,19.85-.79,29.54v.39s-.01.11-.01.11c-.14,4.71-.28,9.42-.41,14.12-.27,9.78,6.62,14.49,13.15,14.72.2,0,.39.01.59.01,4.61,0,7.62-1.93,9.34-3.56,2.68-2.53,4.15-6.1,4.24-10.32.28-12.65.59-25.3.89-37.95l.05-2,.35-14.88c.95.06,1.89.13,2.83.2,41.87,3.25,86.64,7.81,130.43,19.12,10.41,2.69,19,6.23,26.26,10.82,9.1,5.76,13.59,14.33,14.55,27.79.03.39.07,1.05-1.38,2.53-5.31,5.37-12.17,9-20.85,12.79-23.8,10.4-48.69,15.66-69.91,19.43-35.27,6.27-72.01,9.32-112.33,9.32h0ZM485.79,629.72c20.11,0,38.97-.76,57.64-2.32,50.13-4.2,87.69-11.44,121.81-23.49,6.6-2.33,14.1-5.21,21.88-9.33-.14,2.39-.26,4.77-.36,7.15-.31,7.56-.68,15.33-1,22.18-.96,20.4-1.96,41.45-2.03,62.27-.05,13.06,1.16,26.1,2.32,38.71.49,5.33,1,10.82,1.4,16.19.17,2.22-.47,3.83-2.19,5.58-5.54,5.63-13.28,8.45-21.38,11.07-33.45,10.82-69.69,17.37-110.81,20.04-15.49,1-30.89,1.49-47.1,1.49-12.46,0-25.51-.3-38.8-.9-17.94-.81-36.58-1.86-55.42-3.14-21.4-1.45-37.85-5.68-51.77-13.31-10.74-5.89-15.79-13.36-16.87-24.99-1.54-16.47-3.69-33.08-5.77-49.13v-.06c-1.58-12.15-3.21-24.68-4.54-36.99-1.87-17.26-3.37-34.91-4.82-52,17.35,12.81,37.88,18.67,56.25,22.68,25.77,5.63,52.02,7.12,74.3,7.84,9.28.3,18.45.45,27.26.45h0Z"/>
      </g>
    </g>
  </g>
</svg>