<?xml version="1.0" encoding="UTF-8"?>
<svg id="Layer_2" data-name="Layer 2" xmlns="http://www.w3.org/2000/svg" viewBox="0 0 1000 1000">
  <defs>
    <style>
      .cls-1 {
        fill: #fff;
        stroke-width: 0px;
      }
    </style>
  </defs>
  <g id="Ebene_2" data-name="Ebene 2">
    <g>
      <path class="cls-1" d="M960.71,305.38c-25.18-59.54-61.23-113.01-107.15-158.93s-99.39-81.97-158.93-107.15C632.98,13.22,567.5,0,500,0s-132.98,13.22-194.62,39.3c-59.54,25.18-113.01,61.23-158.93,107.15s-81.97,99.39-107.15,158.93C13.22,367.02,0,432.5,0,500s13.22,132.98,39.3,194.62c25.18,59.54,61.23,113.01,107.15,158.93s99.39,81.97,158.93,107.15c61.65,26.07,127.13,39.3,194.62,39.3s132.98-13.22,194.62-39.3c59.54-25.18,113.01-61.23,158.93-107.15s81.97-99.39,107.15-158.93c26.07-61.65,39.3-127.13,39.3-194.62s-13.22-132.98-39.3-194.62ZM500,985.22c-267.55,0-485.22-217.67-485.22-485.22S232.45,14.78,500,14.78s485.22,217.67,485.22,485.22-217.67,485.22-485.22,485.22Z"/>
      <path class="cls-1" d="M676.05,503.63c-10.61-5.01-20.35-8.62-29.78-11.03-40.41-10.35-82.3-14.91-121.54-18.3-5.32-.46-10.72-.82-15.95-1.17-.91-.06-1.82-.12-2.73-.18v-34.62c.88-.15,1.76-.3,2.63-.44,5-.83,10.16-1.69,14.96-3.8,17.1-7.53,24.53-19.14,23.4-36.52-.55-8.48-3.2-16.41-8.08-24.23-.73-1.17-1.47-2.33-2.21-3.49-2.49-3.88-4.83-7.54-6.62-11.41-6.23-13.49-12.35-27.97-12.66-43.62-.23-11.29.16-22.83,1.15-34.29,2.03-23.48-3.67-46.42-17.94-72.2-2.49-4.5-6.96-6.17-11.39-4.27-4.47,1.91-6.28,6.35-4.61,11.29,4.55,13.5,4.67,28.18.38,46.18-4.72,19.78-13.13,38.13-24.31,59.59-1.6,3.08-3.23,6.14-4.87,9.2-4.58,8.6-9.33,17.49-13.34,26.63-6.92,15.72-6.23,33.62,1.89,49.12,8.05,15.37,22.17,26.02,38.74,29.22,1.66.32,3.31.69,5.02,1.09v35.14c-.99,0-1.97,0-2.95-.01-5.83-.03-11.34-.06-16.97.06-4.27.09-8.54.16-12.82.23-13.88.23-28.22.47-42.36,1.23-24.54,1.32-45.78,4.62-64.93,10.12-11.97,3.43-25.77,8.29-37.46,18.33-10.18,8.75-14.97,19.83-14.25,32.95.16,2.88.3,5.77.44,8.65.34,6.97.69,14.18,1.3,21.29.45,5.21.89,10.42,1.33,15.63,2.12,24.97,4.31,50.78,6.97,76.15,1.22,11.62,2.78,23.37,4.29,34.72,1.9,14.33,3.87,29.15,5.16,43.73,1.59,18.12,10.26,31.52,26.5,40.95,15.42,8.96,31.45,14.1,47.63,15.29,29.8,2.19,64.95,4.58,99.64,5.65,6.08.19,12.16.28,18.25.28,29.37,0,58.81-2.19,87.73-6.52,27.62-4.14,51.79-9.84,73.88-17.44,7.44-2.56,16.99-6.41,24.96-13.61,7.63-6.89,11.09-15.75,10.27-26.33-.34-4.43-.71-8.86-1.08-13.28-1.12-13.44-2.28-27.33-2.65-40.95-.69-25.52,1.05-51.51,2.74-76.64.46-6.88.94-13.99,1.36-20.99.12-1.99.25-3.99.39-5.98.61-9.04,1.24-18.38.51-27.65-1.58-20.08-11.95-35.19-29.98-43.7ZM485.12,417.89c-10.54-2.32-20.05-9.96-25.46-20.43-5.34-10.34-5.94-22.11-1.64-32.28,3.73-8.82,8.38-17.55,12.89-25.99,1.58-2.96,3.16-5.92,4.7-8.89,10.55-20.28,20.46-40.37,25.85-62.84.08,2.27.08,4.57,0,6.88-.13,3.77-.32,7.64-.51,11.37-.54,11-1.11,22.38-.35,33.62,1.28,19.1,7.9,38.08,20.26,58.03l.12.18c3.97,6.41,7.72,12.46,8.6,19.64,1.33,10.88-3.41,17.81-14.93,21.81-9.5,3.29-19.67,1.05-29.51-1.12ZM686.02,719.44c.49,5.34,1,10.86,1.41,16.26.27,3.67-.87,6.68-3.61,9.45-6.33,6.43-14.69,9.5-23.41,12.32-33.85,10.95-70.49,17.58-112.03,20.28-27.47,1.78-55.75,1.98-86.45.6-18-.81-36.69-1.87-55.53-3.14-22.15-1.5-39.26-5.92-53.83-13.91-12.21-6.69-18.21-15.61-19.45-28.91-1.53-16.41-3.68-32.98-5.76-49.01-1.58-12.16-3.21-24.73-4.55-37.09-1.92-17.65-3.44-35.67-4.91-53.09-.31-3.7-.62-7.4-.94-11.1,17.72,17.38,40.7,24.52,63.33,29.46,25.38,5.54,51.35,7.02,73.4,7.73,30.18.97,57.76.37,84.33-1.86,49.68-4.16,86.86-11.32,120.56-23.22,8.97-3.17,19.12-7.22,29.14-13.67-.38,5.62-.74,10.98-.96,16.41-.31,7.4-.66,14.8-1.01,22.2-.96,20.32-1.95,41.33-2.03,62.06-.05,12.83,1.15,25.75,2.3,38.25ZM686.64,559.5c-5.87,5.94-13.2,9.83-22.41,13.86-24.28,10.61-49.53,15.95-71.04,19.77-41.55,7.38-85.52,10.36-134.43,9.12-25.54-.65-55.54-2.32-84.43-9.77-16.15-4.16-28.31-9.45-38.28-16.65-15.85-11.44-23.08-26.94-22.12-47.38.22-4.58,2.47-8.72,7.1-13.03,8.32-7.75,18.75-11.69,28.77-14.79,21.74-6.74,44.2-9.07,63.3-10.47,13.58-.99,27.9-1.49,43.25-1.49,10.08,0,20.62.21,31.68.64,0,.66,0,1.32.01,1.97.03,4.88.05,9.49-.05,14.17-.22,9.98-.52,20.14-.8,29.97-.14,4.74-.28,9.49-.41,14.23-.19,6.85,4.37,9.44,8.33,9.58,3.19.12,5.2-1.13,6.32-2.19,1.71-1.62,2.61-3.9,2.68-6.8.3-13.32.62-26.64.94-39.95l.48-20.05c2.79.15,5.44.3,8.09.51,42.09,3.26,87.13,7.86,131.29,19.26,10.92,2.82,19.98,6.56,27.69,11.44,10.44,6.6,15.8,16.66,16.86,31.66.16,2.29-.71,4.26-2.81,6.4Z"/>
    </g>
  </g>
</svg>